# xmcd
#
# Track frame offsets: 
#        150
#        62851
#        71836
#        92533
#        108605
#        124348
#        142803
#        157925
#        172858
#        192057
#        201080
#        231909
#
# Disc length: 3892 seconds
#
# Revision: 1
# Processed by: cddbd v1.5.2PL0 Copyright (c) Steve Scherf et al.
# Submitted via: ExactAudioCopy v0.99pb3
#
DISCID=a20f320c
DTITLE=Derek and the Dominos - Unreleased 2nd Album - Substance vol 2
DYEAR=1972
DGENRE=Rock
TTITLE0=Instrumental
TTITLE1=Is My Love
TTITLE2=Evil
TTITLE3=Snake Lake Blues (Minor)
TTITLE4=Snake Lake Blues (Major)
TTITLE5=Mean Old Frisco
TTITLE6=One More Chance
TTITLE7=High
TTITLE8=Got To Get Better In A Little While
TTITLE9=Sick At Heart
TTITLE10=Instrumental
TTITLE11=Devil Road
EXTD=
EXTT0=
EXTT1=
EXTT2=
EXTT3=
EXTT4=
EXTT5=
EXTT6=
EXTT7=
EXTT8=
EXTT9=
EXTT10=
EXTT11=
PLAYORDER=
